<svg width="2560" height="1440" xmlns="http://www.w3.org/2000/svg">
 <!-- Created with Method Draw - http://github.com/duopixel/Method-Draw/ -->
 <defs>
  <filter height="200%" width="200%" y="-50%" x="-50%" id="svg_1_blur">
   <feGaussianBlur stdDeviation="0" in="SourceGraphic"/>
  </filter>
 </defs>
 <g>
  <title>background</title>
  <rect fill="#fff" id="canvas_background" height="1442" width="2562" y="-1" x="-1"/>
  <g display="none" overflow="visible" y="0" x="0" height="100%" width="50%" id="canvasGrid">
   <rect fill="url(#gridpattern)" stroke-width="0" y="0" x="0" height="100%" width="100%"/>
  </g>
 </g>
 <g>
  <title>Layer 1</title>
  <text font-weight="bold" filter="url(#svg_1_blur)" stroke="#000" transform="matrix(2.6426296208738047,0,0,4.000231380301017,-2139.6556679619225,-501.7797682166882) " xml:space="preserve" text-anchor="start" font-family="Helvetica, Arial, sans-serif" font-size="24" id="svg_1" y="155.931983" x="1020.576504" stroke-width="0" fill="#000000">4815162342</text>
  <text font-weight="bold" filter="url(#svg_1_blur)" stroke="#000" transform="matrix(2.6426296208738047,0,0,4.000231380301017,-2139.6556679619225,-501.7797682166882) " xml:space="preserve" text-anchor="start" font-family="Helvetica, Arial, sans-serif" font-size="24" id="svg_3" y="155.931983" x="1020.576504" stroke-width="0" fill="#000000">4815162342</text>
  <text font-weight="bold" filter="url(#svg_1_blur)" stroke="#000" transform="matrix(2.6426296208738047,0,0,4.000231380301017,-2139.6556679619225,-501.7797682166882) " xml:space="preserve" text-anchor="start" font-family="Helvetica, Arial, sans-serif" font-size="24" id="svg_4" y="155.931983" x="1020.576504" stroke-width="0" fill="#000000">4815162342</text>
  <text font-weight="bold" filter="url(#svg_1_blur)" stroke="#000" transform="matrix(2.6426296208738047,0,0,4.000231380301017,-2139.6556679619225,-501.7797682166882) " xml:space="preserve" text-anchor="start" font-family="Helvetica, Arial, sans-serif" font-size="24" id="svg_5" y="155.931983" x="1020.576504" stroke-width="0" fill="#000000">4815162342</text>
  <text font-weight="bold" filter="url(#svg_1_blur)" stroke="#000" transform="matrix(2.6426296208738047,0,0,4.000231380301017,-2139.6556679619225,-501.7797682166882) " xml:space="preserve" text-anchor="start" font-family="Helvetica, Arial, sans-serif" font-size="24" id="svg_6" y="155.931983" x="1020.576504" stroke-width="0" fill="#000000">4815162342</text>
  <text xml:space="preserve" text-anchor="start" font-family="Helvetica, Arial, sans-serif" font-size="24" id="svg_9" y="395.999815" x="271.332756" stroke-width="0" stroke="#000" fill="#000000">moveright</text>
  <path d="m369.999481,361.33313c0,8 -0.144501,17.66745 2.666656,26.666687c3.555847,11.38324 5.08844,18.761719 9.333344,29.333344c3.783722,9.423096 7.202209,19.788269 10.666687,29.333344c4.74939,13.085144 7.446411,21.557678 12,32.000031c3.575195,8.198669 9.840759,15.684052 14.666687,24c5.985809,10.314667 8.586212,17.915009 16,26.666718c3.656433,4.316284 9.333313,10.666626 16,17.333313c5.333344,5.333313 11.375549,10.022644 18.666687,16c7.435547,6.095703 15.358734,14.658813 25.333344,18.666687c10.202179,4.099304 20.921997,9.144836 30.666687,12c7.783142,2.280457 19.87677,6.04834 33.333374,8c14.574646,2.11377 30.666687,2.666687 46.666687,2.666687c17.333313,0 34.683105,3.274963 50.666687,4c14.712036,0.667358 29.345642,0.78949 41.333374,1.333313c14.711975,0.667358 28.309814,-0.614929 42.666687,2.666687c11.10553,2.538452 26.680481,4.664917 42.666687,4c16.041565,-0.667236 32.40509,-10.090088 44,-18.666687c15.235291,-11.269287 22.815613,-22.15802 33.333374,-36c10.852722,-14.282776 18.817993,-25.227112 25.333313,-34.666687c8.192444,-11.869446 14.295288,-20.894318 20,-34.666687c4.840637,-11.686279 9.999207,-23.950165 10.666687,-37.333374c0.929871,-18.643494 2.297668,-35.496796 -4,-49.333344c-9.95752,-21.877533 -24.330261,-36.470581 -46.666687,-50.666718c-22.165649,-14.087616 -54.292297,-23.966705 -80.000061,-30.666656c-38.20929,-9.958099 -70.658936,-12.086334 -114.666687,-16.000031c-30.661377,-2.726776 -60.000061,-2.666656 -81.333374,-2.666656c-20.000061,0 -37.362122,2.051605 -53.333374,14.666656c-22.195679,17.531464 -45.854736,44.419769 -66.666718,77.333405c-20.714172,32.758942 -38.397919,76.094238 -50.666687,110.666718c-15.657959,44.122864 -18.091461,73.231812 -18.666687,106.666748c-0.505127,29.359253 11.179291,65.190613 26.666687,90.666687c18.841217,30.992981 40.568512,56.74231 60.000031,76.000061c15.416595,15.278748 45.227234,42.164063 77.333374,53.333374c28.411255,9.883911 60.000061,13.333313 82.666687,13.333313c18.666687,0 34.666687,0 49.333374,0l10.666687,-2.666626" id="svg_10" stroke-width="1.5" stroke="#000" fill="none"/>
  <rect id="svg_11" height="182.666771" width="141.333414" y="-1.33374" x="-14.000738" stroke-width="1.5" stroke="#000" fill="#D1FFB4"/>
  <rect id="svg_12" height="218.666792" width="214.666789" y="122.666325" x="201.999383" stroke-width="1.5" stroke="#000" fill="#fff"/>
  <rect id="svg_13" height="436.000249" width="328.000188" y="317.333103" x="419.332841" stroke-width="1.5" stroke="#000" fill="#fff"/>
  <rect id="svg_14" height="405.333565" width="188.000108" y="289.333087" x="371.332813" stroke-width="1.5" stroke="#000" fill="#fff"/>
  <rect id="svg_15" height="422.666909" width="80.000046" y="446.66651" x="221.999395" stroke-width="1.5" stroke="#000" fill="#fff"/>
  <rect id="svg_16" height="536.000307" width="337.333526" y="768.000027" x="273.999428" stroke-width="1.5" stroke="#000" fill="#97944B"/>
  <rect id="svg_17" height="509.333625" width="397.333561" y="389.333144" x="607.332948" stroke-width="1.5" stroke="#000" fill="#C97A86"/>
  <rect id="svg_18" height="172.000098" width="665.333714" y="335.99978" x="591.332939" stroke-width="1.5" stroke="#000" fill="#62612C"/>
  <rect id="svg_19" height="308.000176" width="841.333815" y="155.999677" x="920.666461" stroke-width="1.5" stroke="#000" fill="#426373"/>
  <rect id="svg_20" height="244.00014" width="326.666854" y="167.999684" x="711.333008" stroke-width="1.5" stroke="#000" fill="#CC7C65"/>
  <rect id="svg_21" height="569.333659" width="438.666918" y="94.666309" x="429.999514" stroke-width="1.5" stroke="#000" fill="#46673D"/>
  <rect id="svg_22" height="568.000325" width="550.666982" y="736.000009" x="932.666468" stroke-width="1.5" stroke="#000" fill="#9A8AAB"/>
  <rect id="svg_23" height="340.000195" width="372.000213" y="1026.666842" x="567.332926" stroke-width="1.5" stroke="#000" fill="#fff"/>
  <rect id="svg_24" height="281.333494" width="460.000263" y="861.333414" x="737.99969" stroke-width="1.5" stroke="#000" fill="#AF84A3"/>
  <rect id="svg_25" height="537.333641" width="829.333808" y="570.666581" x="1248.666649" stroke-width="1.5" stroke="#000" fill="#FFAAB8"/>
  <rect id="svg_26" height="308.000176" width="444.000254" y="437.333172" x="1684.666898" stroke-width="1.5" stroke="#000" fill="#1A333F"/>
  <rect id="svg_27" height="238.666803" width="354.66687" y="243.999728" x="1794.000294" stroke-width="1.5" stroke="#000" fill="#5B9BA2"/>
  <rect id="svg_28" height="398.666895" width="560.00032" y="7.999593" x="1682.00023" stroke-width="1.5" stroke="#000" fill="#9A8AAB"/>
  <rect id="svg_29" height="377.333549" width="544.000311" y="75.999632" x="2214.000534" stroke-width="1.5" stroke="#000" fill="#46673D"/>
  <rect id="svg_30" height="504.000288" width="330.666856" y="337.333114" x="2135.333823" stroke-width="1.5" stroke="#000" fill="#FFAC8D"/>
  <rect id="svg_31" height="318.666849" width="569.333659" y="836.000066" x="2146.000496" stroke-width="1.5" stroke="#000" fill="#AF84A3"/>
  <rect id="svg_32" height="302.66684" width="294.666835" y="932.000121" x="1954.000386" stroke-width="1.5" stroke="#000" fill="#33666C"/>
  <rect id="svg_33" height="273.33349" width="180.000103" y="1162.66692" x="1826.000313" stroke-width="1.5" stroke="#000" fill="#884D58"/>
  <rect id="svg_34" height="418.666906" width="430.666913" y="997.333492" x="1399.333402" stroke-width="1.5" stroke="#000" fill="#FFDFB8"/>
  <rect id="svg_35" height="398.666895" width="452.000259" y="1094.666881" x="461.999532" stroke-width="1.5" stroke="#000" fill="#B9FFCE"/>
  <rect id="svg_36" height="422.666909" width="301.333506" y="988.000153" x="11.332607" stroke-width="1.5" stroke="#000" fill="#FFDBD2"/>
  <rect id="svg_37" height="381.333552" width="514.666961" y="615.99994" x="-6.000736" stroke-width="1.5" stroke="#000" fill="#645A73"/>
  <rect id="svg_38" height="260.000149" width="345.333531" y="331.999778" x="19.332612" stroke-width="1.5" stroke="#000" fill="#fff"/>
  <rect id="svg_39" height="297.333503" width="349.333533" y="1.33292" x="105.999321" stroke-width="1.5" stroke="#000" fill="#C48157"/>
  <rect id="svg_40" height="465.3336" width="738.667089" y="213.333043" x="-192.667509" stroke-width="1.5" stroke="#000" fill="#529D94"/>
  <rect id="svg_41" height="164.000094" width="844.000483" y="3.999593" x="159.332695" stroke-width="1.5" stroke="#000" fill="#5B9BA2"/>
  <rect id="svg_42" height="270.666822" width="205.333451" y="-46.667105" x="1033.999859" stroke-width="1.5" stroke="#000" fill="#FFAFCC"/>
  <rect id="svg_43" height="377.333549" width="333.333524" y="-60.000446" x="1351.333374" stroke-width="1.5" stroke="#000" fill="#619E73"/>
  <rect id="svg_44" height="270.666822" width="345.333531" y="13.332929" x="1707.333578" stroke-width="1.5" stroke="#000" fill="#666666"/>
  <rect id="svg_45" height="28.000016" width="542.666977" y="62.666291" x="801.999726" stroke-width="1.5" stroke="#000" fill="#884D58"/>
  <rect id="svg_46" height="393.333558" width="230.666799" y="82.666303" x="923.333129" stroke-width="1.5" stroke="#000" fill="#FFE7A2"/>
  <rect id="svg_47" height="246.666808" width="376.000215" y="618.666609" x="792.666388" stroke-width="1.5" stroke="#000" fill="#FFFA8D"/>
  <rect id="svg_48" height="250.66681" width="250.66681" y="970.66681" x="573.999596" stroke-width="1.5" stroke="#000" fill="#FFF093"/>
  <rect id="svg_49" height="189.333442" width="428.000245" y="866.666751" x="409.999502" stroke-width="1.5" stroke="#000" fill="#729C62"/>
  <rect id="svg_50" height="164.000094" width="301.333506" y="682.666645" x="468.666202" stroke-width="1.5" stroke="#000" fill="#EDB6DC"/>
  <rect id="svg_51" height="425.333577" width="348.000199" y="541.333231" x="1183.333278" stroke-width="1.5" stroke="#000" fill="#AF84A3"/>
  <rect id="svg_52" height="210.666787" width="265.333485" y="998.666826" x="1852.666994" stroke-width="1.5" stroke="#000" fill="#C97A86"/>
  <rect id="svg_54" height="349.333533" width="262.666817" y="361.333128" x="989.999834" stroke-opacity="null" stroke-width="1.5" stroke="#000" fill="#4D2425"/>
  <rect id="svg_55" height="482.666943" width="374.666881" y="374.666469" x="1419.333413" stroke-opacity="null" stroke-width="1.5" stroke="#000" fill="#33666C"/>
  <rect id="svg_56" height="366.666876" width="29.33335" y="397.333149" x="1339.333367" stroke-opacity="null" stroke-width="1.5" stroke="#000" fill="#FABA6F"/>
  <rect id="svg_57" height="168.000096" width="369.333545" y="391.999812" x="1235.333308" stroke-opacity="null" stroke-width="1.5" stroke="#000" fill="#293414"/>
  <rect id="svg_58" height="381.333552" width="473.333604" y="1145.333577" x="895.333113" stroke-opacity="null" stroke-width="1.5" stroke="#000" fill="#E6C36A"/>
  <rect id="svg_59" height="280.00016" width="558.666986" y="1210.666947" x="1255.333319" stroke-opacity="null" stroke-width="1.5" stroke="#000" fill="#FFA9A2"/>
  <rect id="svg_60" height="312.000179" width="381.333552" y="1160.000252" x="248.666077" opacity="0.5" stroke-opacity="null" stroke-width="1.5" stroke="#000" fill="#FFFF91"/>
  <rect id="svg_61" height="136.000078" width="377.333549" y="989.333487" x="-43.334091" stroke-opacity="null" stroke-width="1.5" stroke="#000" fill="#0C372C"/>
  <rect id="svg_62" height="221.33346" width="226.666796" y="1185.3336" x="-52.667429" stroke-opacity="null" stroke-width="1.5" stroke="#000" fill="#32320F"/>
  <rect id="svg_63" height="114.666732" width="314.666847" y="1402.667057" x="-38.000754" stroke-opacity="null" stroke-width="1.5" stroke="#000" fill="#FABA6F"/>
  <rect id="svg_64" height="269.333487" width="556.000318" y="1194.666938" x="2039.333768" stroke-opacity="null" stroke-width="1.5" stroke="#000" fill="#FABA6F"/>
  <rect id="svg_65" height="166.666762" width="281.333494" y="784.000037" x="2095.3338" stroke-opacity="null" stroke-width="1.5" stroke="#000" fill="#0C372C"/>
  <rect id="svg_66" height="249.333476" width="337.333526" y="458.666517" x="2424.667322" stroke-opacity="null" stroke-width="1.5" stroke="#000" fill="#6F5C2A"/>
  <rect id="svg_67" height="256.000146" width="308.000176" y="960.000137" x="2291.333912" stroke-opacity="null" stroke-width="1.5" stroke="#000" fill="#CE7975"/>
  <rect id="svg_68" height="156.000089" width="154.666755" y="695.999986" x="2458.000674" stroke-width="1.5" stroke="#000" fill="#EDB6DC"/>
  <rect id="svg_69" height="194.666778" width="149.333419" y="121.332991" x="-48.667427" stroke-opacity="null" stroke-width="1.5" stroke="#000" fill="#EDFFFF"/>
  <rect id="svg_70" height="12.000007" width="65.333371" y="225.33305" x="23.332614" stroke-opacity="null" stroke-width="1.5" stroke="#000" fill="#EDFFFF"/>
  <rect id="svg_71" height="105.333394" width="177.333435" y="130.666329" x="24.665948" stroke-opacity="null" stroke-width="1.5" stroke="#000" fill="#B8D078"/>
  <rect id="svg_72" height="365.333542" width="221.33346" y="702.666657" x="2028.667095" stroke-opacity="null" stroke-width="1.5" stroke="#000" fill="#529D94"/>
  <rect id="svg_73" height="133.33341" width="586.667002" y="-8.000417" x="2106.000473" opacity="0.5" stroke-opacity="null" stroke-width="1.5" stroke="#000" fill="#2D6862"/>
  <rect id="svg_74" height="276.000158" width="153.333421" y="-22.667092" x="1228.666637" stroke-opacity="null" stroke-width="1.5" stroke="#000" fill="#EDFFFF"/>
  <rect id="svg_75" height="138.666746" width="93.333387" y="-20.000423" x="983.333164" stroke-opacity="null" stroke-width="1.5" stroke="#000" fill="#EDFFFF"/>
  <rect id="svg_76" height="266.666819" width="72.000041" y="457.333183" x="2107.333807" stroke-opacity="null" stroke-width="1.5" stroke="#000" fill="#EDFFFF"/>
  <rect id="svg_77" height="172.000098" width="144.000082" y="1080.000206" x="2218.000537" stroke-opacity="null" stroke-width="1.5" stroke="#000" fill="#EDFFFF"/>
  <rect id="svg_78" height="128.000073" width="132.000076" y="1068.000199" x="1782.000287" stroke-opacity="null" stroke-width="1.5" stroke="#000" fill="#EDFFFF"/>
  <rect id="svg_79" height="298.666838" width="184.000105" y="1197.333606" x="1988.667072" stroke-opacity="null" stroke-width="1.5" stroke="#000" fill="#97944B"/>
  <rect id="svg_80" height="80.000046" width="90.666719" y="1022.66684" x="532.666239" stroke-opacity="null" stroke-width="1.5" stroke="#000" fill="#EDFFFF"/>
  <rect id="svg_81" height="89.333384" width="133.33341" y="1113.333558" x="-86.000782" stroke-opacity="null" stroke-width="1.5" stroke="#000" fill="#EDFFFF"/>
  <rect id="svg_82" height="126.666739" width="184.000105" y="615.99994" x="485.999546" stroke-opacity="null" stroke-width="1.5" stroke="#000" fill="#EDFFFF"/>
  <rect id="svg_83" height="121.333403" width="101.333391" y="694.666652" x="1179.333276" stroke-opacity="null" stroke-width="1.5" stroke="#000" fill="#EDFFFF"/>
  <rect id="svg_84" height="106.666728" width="126.666739" y="646.666625" x="1120.666575" stroke-opacity="null" stroke-width="1.5" stroke="#000" fill="#FFFA8D"/>
  <rect id="svg_85" height="169.33343" width="444.000254" y="-60.000446" x="1650.000212" stroke-opacity="null" stroke-width="1.5" stroke="#000" fill="#7B572D"/>
  <rect id="svg_86" height="94.666721" width="214.666789" y="-57.333778" x="1988.667072" stroke-opacity="null" stroke-width="1.5" stroke="#000" fill="#EDFFFF"/>
 </g>
</svg>